# xmcd
#
# Track frame offsets:
#	150
#	24852
#	44250
#	67289
#	102408
#	119444
#	147942
#	175314
#	195017
#	235172
#	260444
#	275429
#
# Disc length: 3878 seconds
#
# Revision: 0
# Processed by: cddbd v1.5.2PL0 Copyright (c) Steve Scherf et al.
# Submitted via: dBpowerAMP V4.0
#
DISCID=a70f240c
DTITLE=Papa Chubby - Electric Chubbyland
DYEAR=2007
DGENRE=Blues
TTITLE0=Burning the Midnight Lamp
TTITLE1=Manic Depression
TTITLE2=Spanish Castle Magic
TTITLE3=The Wind Cries Mary
TTITLE4=Remember
TTITLE5=Foxy Lady
TTITLE6=Catfish Blues
TTITLE7=Highway Child
TTITLE8=Red House
TTITLE9=Can You See Me
TTITLE10=Purple Haze
TTITLE11=Third stone From the Sun
EXTD=
EXTT0=
EXTT1=
EXTT2=
EXTT3=
EXTT4=
EXTT5=
EXTT6=
EXTT7=
EXTT8=
EXTT9=
EXTT10=
EXTT11=
PLAYORDER=
